<?xml version="1.0" encoding="UTF-8"?>
<svg id="Camada_2" data-name="Camada 2" xmlns="http://www.w3.org/2000/svg" viewBox="0 0 43.12 62.97">
  <defs>
    <style>
      .cls-1 {
        fill: #fcb48b;
      }

      .cls-2 {
        fill: #ddd;
      }

      .cls-3 {
        fill: #775b45;
      }

      .cls-4 {
        fill: #fff;
      }

      .cls-5 {
        fill: #d18a66;
      }

      .cls-6 {
        fill: #f4a376;
      }

      .cls-7 {
        fill: #af0c00;
      }

      .cls-8 {
        fill: #624839;
      }

      .cls-9 {
        fill: #8b6b51;
      }

      .cls-10 {
        fill: #e5a383;
      }

      .cls-11 {
        fill: #ac7552;
      }

      .cls-12 {
        opacity: .33;
      }

      .cls-13 {
        fill: #e2ce0e;
      }

      .cls-14 {
        fill: #bfffb6;
      }

      .cls-15 {
        fill: #fff5a9;
      }

      .cls-16 {
        fill: #936348;
      }

      .cls-17 {
        fill: #c6825d;
      }

      .cls-18 {
        fill: none;
        stroke: #000;
        stroke-miterlimit: 10;
        stroke-width: .05px;
      }

      .cls-19 {
        fill: #000c00;
      }

      .cls-20 {
        opacity: .1;
      }

      .cls-21 {
        fill: #eb9c6a;
      }

      .cls-22 {
        fill: #a99bba;
      }

      .cls-23 {
        fill: #f4ce89;
      }
    </style>
  </defs>
  <g id="Camada_1-2" data-name="Camada 1">
    <g id="Camada_2-2" data-name="Camada 2">
      <g>
        <path class="cls-21" d="m27.36,50.7c.06,0,.11-.01.14-.03.21-.13.28-.26.28-.26l-.42.29Zm9-2.37l-.39,1.21s-.58,1.37-.61,1.55c-.02.19-1.13,2.05-1.13,2.05l-2.82,3.27s-2.93,2.63-3.03,2.87-3.01,2.74-3.01,2.74l-2.34.64-2.39.06-3.54-.47-2.83-.88s-1.74-1.78-1.78-1.98c-.04-.19-4.22-4.73-4.22-4.73l-1.54-2.25-1.12-3.69-.52-1.98-.36-1.38-.14-.68-.62.41-.62.02c.15-.08.29-.19.33-.2.07-.03.27-.59.35-.67s.27-.59.32-.96c.05-.36-.34-.6-.34-.6,0,0-.32-.58-.48-.63s-.91.19-1.06.27c-.14.07-.61.63-.61.63,0,0,.11,1.59.33,1.81l.22.17s.05.05.08.07l-.29-.11-.41-.61-.26-.84.07-.91-.43-1.45-.49-2.17-.14-1.52-.22-1.4s-.09-2.14-.07-2.3c.03-.16.55-1.89.55-1.89l.46-.98.66-.23.79.11,1.04.13.08-.86.39-3.11.33-3.01.03-.22.16-1.24,1.06-.72,1.41-.75.02-.06.86-2.57.13-.5.52-1.9v-.09s.21-1.52.21-1.52l1.22-1.4,2.85-1.26,2.75-.53,2-.28,1.45.02,1.3.54,1.1,1.14.71.1.05-.03.59-.33.56-.44,1.46-.53,1.44.19,2.2.29,2.49,1.08s2.1.46,2.6.72c.49.25,1.48,1.27,1.48,1.27l.84,1.05.45,2.73.04.5.52,2.07.92,2.27,1.56.8.14.99-.04,3.24-.2,1.53.14,1.89.21,1.09.02.1.34-.3.25-.08.55-.11h.45s.52.12.52.12l.6.46.36.88-.1,2.46-.64,2.52-.7,2.55-.56,1.46-.55,1.13s-.42,1.13-.54,1.65c-.01.17-.25.95-.25.95l-.03.08.17-.9-.02-.47-.12-.5-.25-.38-.55-.2h-.66s-.49.16-.54.19c-.28.16-.45.8-.45.8,0,0,.04.92.09,1.05.02.06.06.33.15.57.08.23.22.43.22.43,0,0,.67.42.73.43.07,0,.54,0,.54,0l.41-.45-.37.6-.76.46h-.96l-.77-.17Zm1.49-20.24l-.32-.77-1.09-.9-1.53-.71s-1.19-.18-1.29-.17-1.82.2-2.07.21c-.25.02-1.03.12-1.43.16s-1.83-.12-1.93-.14c-.1-.01-1.49.27-1.66.42-.17.14-1.18,1.1-1.18,1.1l-.04,1.03.56.23,1.98-.25,2.02-.34,3.08-.35,1.27-.24,1.79.1,1.84.62Zm-18.37-.24c.12-.22-.14-.63-.14-.63,0,0-.88-.72-.88-.8,0-.07-1.17-.69-1.17-.69l-1.4-.56s-2.9-.5-3.07-.53c-.17-.02-1.26-.3-1.44-.3-.17,0-1.57.72-1.68.78s-2.15,1.49-2.22,1.53c-.08.04-.77,1.65-.77,1.65l.86-.54s2.03-.59,2.17-.72c.14-.12,2.52-.41,2.52-.41,0,0,3.39.71,3.48.72.1.01,2.46,1.03,2.46,1.03,0,0,.72.33.82.34.09,0,.33-.66.46-.87Z"/>
        <path class="cls-8" d="m41.06,18.18l.42,4.3-.51,4.83s-.59,3.73-.61,3.82c-.01.09-.58,1.86-.58,1.86l-.21-1.09-.14-1.89.2-1.53.04-3.24-.14-.99-1.56-.8-.88-2.3-.51-2.07-.04-.5-.32-2.83-1.32-1.38s-.64-.59-1.14-.84c-.49-.26-2.6-.72-2.6-.72l-2.49-1.08-3.66-.51-1.46.54-1.17.82-.71-.1-1.1-1.14-1.3-.54-1.46-.02-2.29.31-2.46.5-2.88,1.23-1.22,1.41v.05s-.21,1.52-.21,1.52l-.53,1.99-.13.5-.86,2.57-1.42.75-1.06.73v.05s-.02.01-.02.01l-.15,1.23-.03.22-.83,6.69-.38-1.66-.18-2.64.1-5.23.39-2.96,1.12-3.43.77-1.79,2.48-4.13,2.61-3.08,1.81-1.65,2.33-1.48,2.97-1.4,2.62-.64,2.02-.2,2.6.34,2.93.63,3.37,1.58s2.73,1.9,2.78,2,2.39,2.43,2.39,2.43l2.19,2.96,1.48,3.06s.49,2.1.49,2.29c.01.19.45,2.64.45,2.64Z"/>
        <path class="cls-2" d="m39.65,45.49l.02.47-.17.9v.03s-.02.02-.02.02l-.26.53-.41.45s-.47,0-.54,0c-.06-.01-.73-.43-.73-.43,0,0-.14-.2-.22-.43-.09-.24-.13-.51-.15-.57-.05-.13-.09-1.05-.09-1.05,0,0,.17-.64.45-.8.05-.03.54-.19.54-.19h.66l.55.2.25.38.12.5Zm-.64.74s.02-.15,0-.31c-.02-.15-.09-.31-.11-.36,0-.01-.13-.15-.26-.24-.1-.07-.28-.07-.31-.09l-.26.09-.19.22-.06.43.06.34.11.21.19.21.27.14.41-.13.15-.51Z"/>
        <polygon class="cls-21" points="39.22 47.44 39.48 46.91 39.36 47.22 39.22 47.44"/>
        <path d="m39.01,45.92c.02.16,0,.31,0,.31l-.15.51-.41.13-.27-.14-.19-.21-.11-.21-.06-.34.06-.43.19-.22.26-.09s.21.02.31.09c.13.09.26.23.26.24.02.05.09.21.11.36Z"/>
        <path class="cls-8" d="m37.53,27.32l.32.77-1.84-.62-1.79-.1-1.27.24-3.08.35-2.02.34-1.98.25-.56-.23.04-1.03s1.01-.96,1.18-1.1c.17-.15,1.56-.43,1.66-.42.1.02,1.53.18,1.93.14s1.18-.14,1.43-.16c.25-.01,1.97-.2,2.07-.21s1.29.17,1.29.17l1.53.71,1.09.9Z"/>
        <path class="cls-8" d="m19.34,27.22s.26.41.14.63c-.13.21-.37.87-.46.87-.1,0-.82-.34-.82-.34,0,0-2.36-1.02-2.46-1.03-.09,0-3.48-.72-3.48-.72,0,0-2.38.29-2.52.41-.14.13-2.17.72-2.17.72l-.86.54s.69-1.61.77-1.65c.07-.04,2.11-1.47,2.22-1.53s1.51-.78,1.68-.78c.18,0,1.27.28,1.44.3.17.03,3.07.53,3.07.53l1.4.56s1.17.62,1.17.69c0,.08.88.8.88.8Z"/>
        <path class="cls-13" d="m4.01,42.68s.39.24.34.6c-.05.37-.24.88-.32.96s-.28.64-.35.67c-.04.01-.18.12-.33.2h-.19s-.41,0-.41,0l-.24-.1s-.01,0-.02,0c-.03-.02-.05-.04-.08-.07l-.22-.17c-.22-.22-.33-1.81-.33-1.81,0,0,.47-.56.61-.63.15-.08.9-.32,1.06-.27s.48.63.48.63Zm-.42,1.3c.18-.26.07-.69.07-.69,0,0-.06-.15-.22-.22-.2-.1-.53-.1-.73.02-.11.07-.17.16-.2.29-.03.08-.07.42.03.6.11.2.35.23.41.24s.47.03.64-.24Z"/>
        <path d="m3.66,43.29s.11.43-.07.69c-.17.27-.58.25-.64.24s-.3-.04-.41-.24c-.1-.18-.06-.52-.03-.6.03-.13.09-.22.2-.29.2-.12.53-.12.73-.02.16.07.22.22.22.22Z"/>
        <path class="cls-13" d="m3.16,45.12h.18c-.11.04-.22.07-.32.05-.22-.06-.34-.03-.51-.16l.24.1h.41Z"/>
      </g>
      <path class="cls-23" d="m31.94,12.94l1.33.37.36.14.61.4.49.32.63.66.85.93.36,3.33.52,2.07.53,1.34.35.96,1.56.81.13,1.06-.03,3.16-.2,1.53.37,3.08s-1.85,2.5-1.95,2.69-.28,2.2-.28,2.2c0,0-.43,2.54-.4,2.68s-.41,1.48-.41,1.48l-.4,6.2-.14.5-.93,2.42-1.07,1.89-2.82,3.27-3.89,3.72-2.15,1.89-2.34.63-2.33.06-.71-.08,1.82-.4,1.47-.47,1.12-.63s.66-.99.46-1.77c0,0-.47-1.08-.13-1.37.47-.39,1.54-.18,1.56-.19.03-.01.58-.19,1.09-.6,1.27-1.02,3.25-2.9,3.25-2.9l2.65-3.9,1.44-7.38,1.98-4.2,1.69-6.1-.25-2.11-1-1.14-.46-.57-.28-.35-.57-.33-1.33-.21-1.2.03-.51-.54,1.27-.24,1.79.1,1.84.62-.32-.77-1.09-.89-1.4-.63-1.92-.1-2.97.31-1.83-.14,2.5-.97,2.07-1.35.68-3.17-.61-3.09-1.61-2.24-1.91-1.8-1.56-1.55.89.1,3.3,1.23Z"/>
      <path class="cls-17" d="m15.97,10.97l-3.11,4.26-.06,4.17,1.42,2.4,1.94,2.18-.27,1.19-4.5-.83-1.68.78-2.23,1.53-.76,1.65-.34,1.3.57,5.06,2.46,2.56,4.59,3.16s1.04,2.29,1.09,2.43.05,2.42,0,2.7-2.23,4.07-2.23,4.07c0,0,.28,2.49.62,2.98s2.08,2.05,2.32,2.43c.14.22.77.67,1.21,1.13.31.32.34.52.34.52l.03.36-.26.49-.81.36-.44.54-.22.76.25.93.59,1.01.73.71.9.59-1.03-.14-2.84-.87-1.74-1.92-4.26-4.79-1.53-2.26-1.5-5.09-.65-2.64.42-.63-.33-1.76v-4.2s0-3.28,0-3.28c0,0-.36-2.08-.46-2.36s-.49-1.61-.49-1.61l.99-8.49,2.48-1.48.91-1.81.62-3.3.2-1.52,1.22-1.41,2.85-1.25,2.94-.6Z"/>
      <path class="cls-11" d="m11.4,58.19l-1.13-3.17s.29-1.47.14-2.23c-.14-.71-.58-1.61-.62-2.39-.06-.94.3-1.71.28-1.78-.02-.1.52-1.4.58-2.63.06-1.12-.35-2.18-.35-2.18,0,0-.22-.8-.96-1.54-.26-.26-1.44-1.71-.91-1.01.15.2-1.58-2.16-1.58-2.16l-.85-1.02-.69-6.82.63-2.62s.57-2.01.38-2.02-1.01-.71-1.01-.71l-.99.16-.56,4.77.94,3.97v2.28s-.01,1-.01,1v4.2s.33,1.84.33,1.84l-.42.55.61,2.31.85,3.19.68,2.23,1.53,2.26,3.13,3.53Z"/>
      <polygon class="cls-17" points="16.81 42.05 17.29 41.57 18.56 41.19 19.42 40.29 20.24 39.91 22.54 39.91 23.38 40.39 24.2 41.56 25.26 42.26 25.83 43.06 25.78 44.03 25.21 44.41 24.58 44.49 23.92 44.24 24.58 43.55 24.44 42.76 23.76 42.48 22.91 42.77 22.5 43.63 21.99 43.86 21.5 43.93 20.96 43.86 20.53 43.5 20.44 42.82 20.1 42.26 19.78 42.14 19.12 42.31 18.85 42.82 18.99 43.67 18.61 43.93 17.88 43.79 17.3 43.58 16.94 43.33 16.8 42.68 16.81 42.05"/>
      <polygon class="cls-11" points="22.9 34.23 22.78 34.84 22.71 36.68 23.29 38.45 23.29 40.39 22.45 39.91 20.24 39.91 19.55 40.24 20.25 38.14 21.23 36.23 21.12 34.2 21.56 33.57 22.54 33.57 22.9 34.23"/>
      <polygon class="cls-23" points="30.15 34.78 27.95 36.72 26.95 38.57 26.69 40.91 25.7 39.14 24.36 37.69 24.36 35.37 24.83 33.31 25.71 33.1 26.5 33.1 27.04 33.68 27.66 34.41 28.8 34.69 30.15 34.78"/>
      <path class="cls-11" d="m20.14,33.31l-1.49-.83-1.66.12-2.04.59-2.33.12,2.04,1.06,1.4,2.51s.13.82.25,1.07,1.2.52,1.2.52l.8-.24,1.28-2.07.56-.97v-1.88Z"/>
      <polygon class="cls-11" points="40.35 34.55 41.01 34.28 41.79 34.47 42.12 34.95 42.12 35.63 41.98 36.7 41.43 39.57 41.11 41.85 39.86 43.88 38.39 44.31 38.1 43.64 38.07 42.4 38.51 41.85 39.24 41.65 39.43 40.83 38.95 40.11 39.13 37.66 39.43 35.92 39.87 35.13 40.35 34.55"/>
      <path class="cls-16" d="m39.22,36.5c.15-.23.35.23.45.29.29.18.56.37.61.44.06.09.44,2.1.44,2.1l-.44,1.94-.6,1.48-1.23.82-.35.07-.11-1.33.81-.73.55-.18.08-.57-.45-.61-.1-1.09"/>
      <path class="cls-9" d="m14.13,49.88l2.33-.11,2.84.19,1.39.24s1.55-.05,1.64-.07,2.07-.1,2.07-.1l1.58.47,1.49.3.43-.3-1.01-.92-.79-.71-1.19-1.06-1.19-.36-1.38.02-.79.41-1.54-.56-1.32-.06-1.18.33-1.41.8-1.97,1.49Z"/>
      <path class="cls-11" d="m14.13,49.88s1.64,1.23,1.7,1.26,2.62,1.13,3.11,1.31,3.55.34,3.55.34l2.81-.5,2.61-1.81-1.03-.23-2.69-.34-2.54.15-2.75-.19-2.9-.13-1.87.13Z"/>
      <path class="cls-23" d="m23.46,50.1s-1.98.37-2.15.42-.83.73-.83.73c0,0,.85,1.17,1.06,1.17s1.72-.05,1.92-.19,1.95-.76,1.95-.76l.28-.81s-.66-.31-.9-.3-1.33-.27-1.33-.27Z"/>
      <path class="cls-4" d="m39.51,45.42s0,.49,0,.53-.17.56-.19.59c-.01.02-.24.6-.26.65-.01.04-.45.45-.45.45l-.44-.3.04-.34s.42-.15.44-.16c.03-.01.33-.42.33-.45,0-.04.15-.58.15-.61s-.42-.68-.46-.74c-.03-.05-.66-.18-.66-.18,0,0-.02-.27.03-.25.04.02.39-.02.5,0s.47.25.56.33.37.46.41.48Z"/>
      <path class="cls-4" d="m37.71,44.71l.17.33-.24.37s-.12.51-.14.51c0-.02-.12-.08-.17-.16-.03-.07.01-.16,0-.19,0-.04.08-.62.1-.65.03-.02.28-.21.28-.21Z"/>
      <path class="cls-15" d="m2.69,42.69s-.22.43-.25.5c-.04.06-.2.58-.23.63l-.18-.14s-.14-.51-.1-.57c.03-.05.1-.38.13-.39s.22-.23.23-.23c.02,0,.39.16.4.2Z"/>
      <path class="cls-15" d="m4.24,43.03s-.09.55-.09.55c0,0-.23.64-.25.68-.02.05-.24.28-.29.31-.04.02-.24-.07-.24-.07,0,0,.09-.24.13-.27.03-.03.26-.41.26-.41,0,0,0-.64-.07-.72-.06-.08-.18-.31-.18-.31,0,0-.6-.11-.65-.11l-.23-.19s.15-.26.19-.28c.03-.01.37-.16.43-.16.05,0,.26.17.3.22.05.04.29.33.35.41s.31.34.34.35Z"/>
      <path class="cls-11" d="m35.56,29.32s-1.23-.73-1.3-.75-1.66-.45-1.66-.45c0,0-2.34-.05-2.46-.1s-2.43.52-2.58.47-2.01.35-2.16.38-.97.97-1.14,1.25-.19,1.25-.14,1.3.73.9.73.86c0-.02.55-.24.93-.61.47-.45.8-1.06.8-1.06l1.07-.76,1.29-.09,1.52-.05,2.32.09,1.57.61,2.05.8-.21-.77-.64-1.14Z"/>
      <path class="cls-11" d="m20.48,32.47s.26-1.76.21-1.79-.66-1.1-.97-1.31-3.81-1.68-3.81-1.68l-1.33-.33-1.41-.21-1.69.14s-1.97.24-2.04.24-.76.45-.88.43-.86,1.16-.94,1.11-.18.62-.18.62l.33.12.79-.44s.91-.32.98-.32,1.44-.45,1.44-.45l1.33-.17h1.4l1.94.3,1.61.73s.99.76,1.04.85.59,1.28.59,1.28c0,0,.45.69.52.7s.38.18.52.17.54,0,.54,0Z"/>
      <path class="cls-16" d="m29.1,29.19c.07.07.21.44.21.44,0,0-1.51.18-1.59.18-.07.01-1.64.59-1.75.72-.11.12-1.04,1.07-1.21,1.07-.16,0-.28-.44-.28-.44l.24-.84,1.35-.94.6-.19s1.36-.19,1.5-.19c.15,0,.86.12.93.19Z"/>
      <path class="cls-16" d="m16.38,28.61c.26.04,1.36.86,1.53,1.03s1.35,1.96,1.35,1.96c0,0,.07.1.17.21.09.09.2.2.37.25.15.04.31.03.39,0,.29-.1.47-.63.34-1.28l-.76-1.14s-1.64-.97-1.87-.99-1.25-.31-1.25-.31l-.28.1"/>
      <polygon class="cls-11" points="8.95 30.66 10.36 30.15 11.15 29.95 13.17 30.01 15.26 30.08 15.97 30.25 16.47 30.53 17.16 30.95 17.71 31.36 17.99 31.39 17.72 31.04 16.95 30.42 15.81 29.67 14.75 29.29 13.57 29.19 11.86 29.06 10.65 29.19 9.76 29.57 8.95 30.66"/>
      <path class="cls-3" d="m10.03,30.27l-.58.5-.28.2.36.19.77.36,1.04.39,1.28.16,1.28-.07,1.11-.17,1.18-.35s.41-.14.46-.16.27-.08.27-.08l-.77-.62-.66-.36-.43-.2-1.2-.04-2.7-.08-.79.2-.33.12Z"/>
      <polygon class="cls-4" points="16.28 30.71 16.31 30.86 16.35 31.02 16.31 31.2 16.15 31.43 14.97 31.78 13.86 31.95 12.58 32.02 11.38 31.87 10.26 31.46 9.69 31.2 9.57 31.02 9.5 30.88 9.5 30.73 9.55 30.6 10 30.22 11.12 29.9 15.02 30.02 15.53 30.23 16.11 30.58 16.28 30.71"/>
      <polygon class="cls-11" points="9.73 31.25 10.25 31.49 11.31 31.9 12.62 32.07 13.9 32 15.01 31.83 16.19 31.48 16.89 31.25 16.81 31.25 16.69 31.25 16.54 31.32 16.34 31.39 15.04 31.77 13.95 31.95 12.68 32.02 11.36 31.87 9.56 31.11 9.16 30.96 9.35 31.05 9.73 31.25"/>
      <polyline class="cls-9" points="16.69 31.25 16.1 30.7 15.55 30.34 14.8 30.06 11.15 29.95 10.06 30.3 9.56 30.71 9.16 30.96 8.95 30.66 9.24 30.42 11.16 29.81 14.81 29.95 15.71 30.19 15.97 30.25 16.89 31.22"/>
      <polyline class="cls-9" points="34.45 49.02 34.49 48.93 34.58 48.92 34.65 48.97 34.68 49.11 34.69 49.25 34.67 49.42 34.6 49.57 34.56 49.67 34.49 49.75 34.39 49.81 34.3 49.74 34.32 49.59 34.4 49.39 34.43 49.21"/>
      <circle class="cls-14" cx="30.68" cy="32.02" r=".3"/>
      <circle class="cls-19" cx="13.18" cy="30.96" r=".15"/>
      <polygon points="22.42 43.63 22.83 42.77 23.68 42.48 24.36 42.76 24.5 43.55 23.83 44.24 23.29 44.24 22.82 44 22.42 43.63"/>
      <polygon points="18.9 43.67 19.69 43.81 20.51 43.55 20.42 42.87 20.07 42.31 19.7 42.14 19.03 42.31 18.76 42.82 18.9 43.67"/>
      <polygon class="cls-11" points="21.2 44.71 21.39 44.24 21.64 44.71 21.64 46.91 21.5 47.39 21.28 46.93 21.2 44.71"/>
      <polygon class="cls-1" points="21.98 47.26 22.49 46.78 23.46 47.1 23.39 46.02 23.83 45.14 23.11 44.62 22.42 44.35 21.91 44.59 21.98 47.26"/>
      <polygon class="cls-11" points="20.75 47.26 18.88 46.92 17.22 47.26 17.06 46.8 17.75 46.01 17.8 45.22 17.14 44.59 17.14 43.93 19.02 44.46 20 44.24 20.69 44.59 20.88 45.17 20.88 46.8 20.75 47.26"/>
      <path class="cls-11" d="m18.83,54.35s.17-.58.24-.63c.03-.02.37-.27.81-.39.46-.13,1.01-.13,1.01-.13,0,0,1.26.02,1.31,0s1.67.33,1.72.36.52.34.57.38.13.68.13.68l-.19.3s-.14.08-.29.08c-.2,0-.6,0-.62,0-.05-.01-.81-.11-.81-.11l-.82-.07-1.33.04s-.75.19-.82.19-.6-.13-.6-.13l-.3-.55Z"/>
      <polyline class="cls-1" points="21.91 38.88 22.09 38.22 22.42 37.28 22.71 36.68 23.29 38.45 23.29 39.33 23.29 40.39 22.45 39.91 20.88 39.91 21.02 39.45 21.42 39.08"/>
      <path class="cls-10" d="m20.88,39.91l-.18.48.62.53.77-.32.33-.21.31.03s.28.6.41.5.32-.3.32-.3l-.16-.23-.84-.48h-1.57Z"/>
      <path class="cls-21" d="m.85,38.41l-.32-2.43s-.2-2.17-.15-2.25.24-.79.24-.79l.1-.25-.2-.07-.32,1.12.06,2.19.32,2.59"/>
      <polygon class="cls-5" points="21.12 34.2 19.23 38.44 18 39.42 17.48 39.99 17.09 40.28 16.42 40.72 16.19 40.59 15.5 41.54 15.37 42.41 16.02 43.46 16.54 43.64 17.16 43.48 16.92 43.22 16.81 42.05 17.29 41.57 18.04 41.33 18.56 41.19 19.71 40.09 21.23 36.23 21.12 34.2"/>
      <path class="cls-6" d="m22.9,34.23l.2,2.32s.5,1.67.52,1.74,1.28,2.63,1.28,2.63l1.26,1.09v2.24s-.52.47-.59.47-.78.03-.85,0-.22-.23-.22-.23l.63-.07.57-.39.05-.97-.57-.8-1.06-.7-.82-1.17v-1.93l-.58-1.77v-1.64l.19-.82Z"/>
      <polygon class="cls-21" points="39.8 33.1 38.91 33.24 38.6 33.05 38.28 32.91 37.32 35.41 36.64 37.7 36.75 41.79 36.05 45.32 36.05 46.58 36.17 47.5 36.36 48.34 39.8 33.1"/>
    </g>
    <path class="cls-3" d="m33.69,31.33l.58.5.28.2-.36.19-.77.36-1.04.39-1.28.16-1.28-.07-1.11-.17-1.18-.35s-.41-.14-.46-.16-.27-.08-.27-.08l.77-.62.66-.36.43-.2s1.15-.04,1.2-.04c.05,0,2.7-.08,2.7-.08l.79.2.33.12Z"/>
    <path class="cls-22" d="m27.27,32.06s-.02.06-.01.15c0,.12.06.21.08.21l1.29.47,1.13.17,1.3.07,1.39-.16.98-.39.58-.27s.17-.12.2-.32c.02-.14-.03-.24-.05-.28l-.46-.38-1.14-.32-3.6.23-.72.22s-.33.13-.6.29c-.19.12-.36.3-.36.3Z"/>
    <polygon class="cls-11" points="34.01 32.32 33.43 32.58 32.48 32.98 31.07 33.19 29.79 33.11 28.69 32.92 27.51 32.55 26.8 32.31 26.9 32.29 27.01 32.29 27.2 32.34 27.39 32.43 28.66 32.86 29.75 33.06 31.01 33.13 32.32 32.97 34.16 32.18 34.57 32.03 34.32 32.16 34.01 32.32"/>
    <polyline class="cls-9" points="27.01 32.28 27.6 31.77 28.26 31.47 28.97 31.27 32.42 31.03 33.64 31.37 34.19 31.75 34.35 31.91 34.56 32.02 34.74 31.73 34.46 31.49 32.54 30.88 28.89 31.02 27.99 31.26 27.73 31.32 26.8 32.31"/>
    <polygon class="cls-11" points="34.74 31.73 33.35 31.19 32.4 30.88 29 31.15 27.73 31.37 27.25 31.55 26.59 31.97 25.98 32.25 25.7 32.27 25.97 31.93 26.76 31.33 27.91 30.6 28.97 30.25 30.16 30.17 31.87 30.08 33.08 30.23 33.96 30.62 34.74 31.73"/>
    <path d="m30.68,31.21c.45,0,.86.32.88.81.02.51-.39.94-.88.94-.47,0-.94-.41-.92-.92.02-.48.48-.82.92-.83Z"/>
    <path class="cls-22" d="m31.48,32.02c.04.45-.34.84-.79.86-.41,0-.78-.32-.82-.74-.03-.44.32-.82.75-.84.44-.04.82.29.86.73Z"/>
    <path d="m31.42,31.1s.57.27.66.86c.06.42-.13.84-.49,1.09l-.17.02c.39-.23.61-.67.55-1.1-.07-.59-.66-.85-.7-.86h.14Z"/>
    <path d="m31.98,31.06s.58.26.66.82c.06.44-.18.88-.59,1.11l.14-.02c.43-.19.61-.65.55-1.1-.05-.39-.3-.64-.63-.83h-.13Z"/>
    <path d="m32.8,31.13c.3.11.52.39.56.7.04.33-.11.66-.4.85l.2-.08c.26-.17.32-.58.3-.77s-.21-.57-.49-.65l-.17-.05Z"/>
    <path d="m33.44,31.31c.22.07.39.27.43.5.05.34-.17.56-.18.57l.09-.03c.16-.15.15-.45.16-.52,0-.05-.1-.35-.32-.46l-.17-.05Z"/>
    <path d="m29.74,31.21c-.05.03-.5.31-.55.81-.03.41.18.82.55,1.03l-.11-.02c-.36-.21-.59-.62-.55-1.01.05-.52.49-.78.53-.8h.12Z"/>
    <path d="m29.12,31.26s-.42.29-.45.75c-.02.39.18.78.55.97l-.16-.04c-.34-.2-.52-.58-.49-.95.04-.43.36-.68.41-.71h.14Z"/>
    <path d="m28.35,31.46c-.06.07-.25.27-.27.55-.02.34.21.66.53.84l-.17-.05c-.31-.17-.49-.47-.47-.78.02-.28.21-.47.26-.52l.1-.03Z"/>
    <path d="m27.87,31.65c-.19.2-.18.39-.17.5.03.27.31.49.31.49,0,0,0,0,0,0-.03,0-.14-.04-.14-.04-.23-.24-.23-.47-.23-.47-.01-.26.09-.41.12-.43l.12-.06Z"/>
    <circle cx="30.69" cy="32.06" r=".5"/>
    <path class="cls-22" d="m31.13,32.03c.02.25-.19.47-.43.48-.22,0-.42-.18-.45-.41-.01-.24.17-.45.41-.47.24-.02.45.16.47.4Z"/>
    <circle cx="30.69" cy="32.06" r=".1"/>
    <g>
      <circle cx="30.66" cy="31.61" r=".15"/>
      <path d="m30.6,31.44c-.07.07-.07.12-.08.14l.29.09c0-.07-.04-.16-.04-.16-.07-.07,0-.13.02-.13-.06,0-.15.02-.19.06Z"/>
    </g>
    <g>
      <circle cx="29.86" cy="31.73" r=".15"/>
      <path d="m29.68,31.69c.02.1.06.13.07.14l.24-.18c-.05-.05-.15-.07-.15-.07-.1.02-.11-.07-.09-.09-.03.04-.07.13-.06.19Z"/>
    </g>
    <g>
      <circle cx="30.35" cy="32.3" r=".15"/>
      <path d="m30.3,32.48c.1-.02.13-.06.14-.07l-.18-.24c-.05.05-.07.15-.07.15.02.1-.07.11-.09.09.04.03.13.07.19.06Z"/>
    </g>
    <g>
      <circle cx="31.43" cy="31.69" r=".15"/>
      <path d="m31.54,31.54c-.1-.02-.14,0-.16,0l.08.29c.06-.03.12-.12.12-.12.02-.1.1-.08.12-.05-.03-.05-.09-.12-.15-.13Z"/>
    </g>
    <g>
      <circle cx="30.7" cy="32.94" r=".15"/>
      <path d="m30.85,32.98l-.28-.11c-.01.07,0,.14,0,.14.02.04.07.07.08.09,0,0,.09,0,.09,0,0,0,.08-.05.1-.13Z"/>
    </g>
    <g>
      <circle cx="31.05" cy="32.25" r=".15"/>
      <path d="m31.24,32.26c-.03-.09-.08-.12-.09-.13l-.21.22c.06.04.16.04.16.04.1-.03.12.05.1.07.03-.05.05-.14.03-.2Z"/>
    </g>
    <polygon points="14.63 30.06 14.75 30.28 14.83 30.53 14.89 30.92 14.85 31.32 14.79 31.54 14.69 31.75 14.65 31.83 13.95 31.95 12.66 32.02 11.78 31.92 11.65 31.67 11.54 31.39 11.49 31.04 11.5 30.8 11.56 30.47 11.73 30.09 11.81 29.97 14.63 30.06"/>
    <polygon class="cls-12" points="27.33 32.43 27.86 32.03 28.4 31.79 29.08 31.52 32.42 31.31 33.44 31.56 33.82 31.89 33.33 32.17 32.42 32.68 31.01 33.13 32.32 32.97 34.56 32.02 33.64 31.37 32.42 31.03 28.97 31.27 28.24 31.48 27.79 31.67 27.6 31.77 27.01 32.28 27.33 32.43"/>
    <g>
      <path class="cls-7" d="m13.51,30.36c.34-.11.62-.11.73-.11-.04.13-.15.44-.42.74-.07-.08-.13-.15-.22-.22-.02-.16-.05-.29-.09-.41Z"/>
      <path class="cls-7" d="m13.82,30.99c.27.31.39.61.43.73-.12.01-.4.01-.74-.1.04-.13.07-.27.08-.42.09-.08.16-.14.22-.21Z"/>
      <path class="cls-7" d="m13.59,30.77c.1.07.16.14.22.22-.07.07-.14.14-.22.21,0-.06.02-.14.01-.21,0-.08,0-.16-.01-.23Z"/>
      <path class="cls-7" d="m13.51,30.36c.03.13.07.25.09.41-.05-.04-.11-.09-.17-.13-.08-.06-.17-.11-.25-.15.11-.06.23-.1.33-.13Z"/>
      <path class="cls-7" d="m13.43,30.64c.06.04.12.09.17.13,0,.07,0,.15.01.23,0,.07,0,.14-.01.21l-.16.12c-.09.06-.17.11-.27.15-.08-.03-.15-.07-.23-.13-.06-.04-.11-.08-.16-.12,0-.07,0-.14-.01-.22,0-.09,0-.17.02-.26.04-.05.1-.08.15-.12l.22-.13h0c.08.03.17.09.25.14Z"/>
      <path class="cls-7" d="m13.43,31.33l.16-.12c-.01.15-.05.29-.08.42-.11-.04-.22-.08-.34-.15.09-.04.18-.09.27-.15Z"/>
      <path class="cls-7" d="m13.51,30.36c-.11.03-.22.07-.33.13h0c-.1-.06-.2-.09-.3-.13.1-.32.26-.55.32-.64.07.09.22.32.32.63Z"/>
      <path class="cls-7" d="m13.17,30.49l-.22.13c-.05.04-.11.07-.15.12,0-.13.04-.26.07-.38.1.03.2.07.3.13Z"/>
      <path class="cls-7" d="m13.17,31.48c.12.07.23.11.34.15-.09.31-.25.54-.32.64-.07-.1-.23-.32-.33-.66.1-.03.2-.07.3-.13Z"/>
      <path class="cls-7" d="m12.94,31.35c.08.06.15.1.23.13-.1.06-.21.1-.3.13-.04-.11-.07-.24-.08-.38.05.04.1.08.16.12Z"/>
      <path class="cls-7" d="m12.87,30.36c-.03.12-.07.25-.07.38-.1.07-.18.16-.26.24-.25-.3-.36-.59-.41-.72.12-.01.4-.01.74.1Z"/>
      <path class="cls-7" d="m12.8,30.74c-.01.08-.02.17-.02.26,0,.08,0,.15.01.22-.1-.07-.17-.16-.25-.24.08-.09.16-.17.26-.24Z"/>
      <path class="cls-7" d="m12.78,31.22c.02.14.04.27.08.38-.35.1-.62.1-.74.1.04-.12.16-.42.42-.72.08.08.15.16.25.24Z"/>
    </g>
    <g>
      <path class="cls-18" d="m12.55,30.99c-.26-.3-.38-.6-.42-.73.12-.01.4-.01.74.1.1.03.21.07.32.13.08.04.16.08.24.14.06.04.12.09.17.13.1.07.17.15.24.23.26.3.38.6.42.73-.12.01-.4.01-.74-.1-.11-.03-.22-.08-.33-.14-.08-.04-.16-.08-.24-.14-.06-.04-.11-.08-.16-.12-.1-.07-.17-.15-.24-.23Z"/>
      <path class="cls-18" d="m12.87,30.36c.1-.32.26-.55.32-.64.07.09.22.32.32.64.03.12.07.25.08.4,0,.07,0,.15.01.23,0,.07,0,.14-.02.22,0,.14-.04.28-.08.41-.09.31-.25.54-.32.64-.07-.1-.22-.32-.32-.65-.04-.11-.07-.24-.08-.39,0-.07,0-.14-.01-.22l.02-.25c.01-.14.04-.27.08-.39Z"/>
      <path class="cls-18" d="m13.51,30.37c.34-.11.62-.11.74-.11-.04.12-.15.44-.42.74-.07.07-.16.15-.24.22-.04.05-.1.08-.15.12-.09.06-.17.11-.26.15-.11.06-.22.1-.31.13-.34.11-.62.11-.73.11.04-.12.16-.43.41-.73.07-.08.15-.16.24-.24l.16-.12c.08-.06.16-.1.24-.14.11-.06.23-.1.32-.13Z"/>
    </g>
    <polygon class="cls-11" points="12.88 29.88 13.59 29.91 13.19 29.53 12.88 29.88"/>
    <polygon class="cls-21" points="12.62 32.07 13.9 32 13.21 32.47 12.62 32.07"/>
    <polygon class="cls-11" points="13.64 31.97 13.6 32.02 12.92 32.06 12.91 32.01 13.64 31.97"/>
    <path d="m13.09,31.13l.19-.33c.11.08.18.16.29.27.17.17.32.35.42.51-.19-.05-.37-.15-.59-.26-.11-.06-.22-.12-.32-.19Z"/>
    <path d="m13.37,30.95h-.35c0-.12,0-.29.03-.45.04-.24.07-.4.13-.56.08.21.12.34.14.59.02.13.03.31.04.42Z"/>
    <polygon class="cls-9" points="13.65 29.91 12.59 29.87 12.93 30 13.47 30.02 13.65 29.91"/>
    <path d="m13.09,30.83l.24.31c-.11.07-.27.13-.41.2-.21.11-.39.2-.57.24.13-.19.28-.33.46-.49.1-.09.19-.18.28-.26Z"/>
    <circle class="cls-7" cx="13.2" cy="31" r=".17"/>
    <polygon class="cls-12" points="16.15 31.43 15.49 30.81 14.81 30.45 11.24 30.25 10.22 30.53 10 30.84 10.87 31.43 11.36 31.87 9.66 31.15 9.5 30.88 9.5 30.73 10.06 30.3 11.15 29.95 14.8 30.06 15.55 30.34 16.1 30.7 16.32 30.91 16.35 31.06 16.31 31.2 16.15 31.43"/>
    <path class="cls-20" d="m4.69,36.43l1.07-.6.23,2.26,1.1,1.36.68.94,1.01,1.19,1.23,1.54.5,1.21.17,1.44-.24,1.77-.58,1.68-.09,1.41.33,1.05-.17.27s-.34.44-.78-.24c-.38-.59-.39-1.86-.83-2.79-.54-1.15-1.59-1.86-2.16-2.75-.69-1.08-1.13-2.03-1.16-2.12-.09-.29-.33-2-.33-2v-3.89s0-1.74,0-1.74Z"/>
    <polygon class="cls-11" points="2.81 31.82 2.2 31.47 1.4 31.54 1 31.95 .9 32.63 .87 33.71 .98 36.63 .95 38.93 1.87 41.13 3.26 41.77 3.66 41.16 3.87 39.93 3.52 39.32 2.83 39.02 2.77 38.18 3.35 37.54 3.55 35.08 3.51 33.32 3.19 32.47 2.81 31.82"/>
    <path class="cls-16" d="m3.35,37.5l-.12.2-.27.41-.24.27.11.54.7.4.35.61-.22,1.23-.38-.07-.92-.78-.5-1.59-.3-1.99s.13-.66.28-1.23c.13-.5.26-.98.29-1.02.05-.07.34-.24.64-.42.1-.06.75-.11.75-.11v1.26s-.17,2.28-.17,2.28Z"/>
    <path class="cls-20" d="m38.34,32.93l-.35,2.11-.51,2.22-1.06,2.22-1.71,2.28-1.09.72-1.32.77-.88,1.07-.5,1.21-.17,1.44.24,1.77.58,1.68.09,1.41-.52,1.65s3.57-5.25,3.49-5.39,1.32-2.63,1.41-2.92.71-3.38.71-3.38l3.05-8.69-.89.14-.57-.31Z"/>
    <path class="cls-20" d="m35.66,25.54c.06-.06.5-.38.85-.58.44-.24.81-.36.81-.36l.9-.17.8.17.34.41v.53l-.34.99.13.66.11.51-.24.55-.25.31h-.57l-.38-.22-.1-.34-.32-.77-.96-.81-1.53-.72.75-.17Z"/>
  </g>
</svg>